<svg height="456pt" viewBox="-100 0 456 456" width="456pt" xmlns="http://www.w3.org/2000/svg"><path d="m0 276.535156v139.464844c0 4.417969 3.582031 8 8 8h240c4.417969 0 8-3.582031 8-8v-139.464844c-42.085938-8.804687-85.003906-13.007812-128-12.535156-42.996094-.472656-85.914062 3.730469-128 12.535156zm56 131.464844c0 4.417969-3.582031 8-8 8h-32c-4.417969 0-8-3.582031-8-8v-24c0-4.417969 3.582031-8 8-8h32c4.417969 0 8 3.582031 8 8zm80-120v10.753906c18.757812 3.976563 31.652344 21.25 30.132812 40.363282-1.515624 19.113281-16.976562 34.136718-36.125 35.105468-.671874 0-1.351562.050782-2.023437.050782-19.566406.035156-36-14.722657-38.058594-34.179688-2.0625-19.460938 10.917969-37.328125 30.058594-41.390625v-10.703125c0-4.417969 3.582031-8 8-8s8 3.582031 8 8zm0 0"/><path d="m24 392h16v8h-16zm0 0"/><path d="m48 40h160c4.417969 0 8 3.582031 8 8v8c0 4.417969-3.582031 8-8 8h-160c-4.417969 0-8-3.582031-8-8v-8c0-4.417969 3.582031-8 8-8zm0 0"/><path d="m120 328v-12.671875c-9.949219 3.890625-15.710938 14.320313-13.707031 24.816406 2 10.492188 11.195312 18.070313 21.878906 18.027344s19.816406-7.695313 21.734375-18.203125-3.925781-20.890625-13.90625-24.703125v12.734375c0 4.417969-3.582031 8-8 8s-8-3.582031-8-8zm0 0"/><path d="m248 0h-240c-4.417969 0-8 3.582031-8 8v252.136719c42.128906-8.484375 85.027344-12.550781 128-12.136719 42.972656-.414062 85.871094 3.652344 128 12.136719v-252.136719c0-4.417969-3.582031-8-8-8zm-16 128c0 13.253906-10.746094 24-24 24h-160c-13.253906 0-24-10.746094-24-24v-8c0-13.253906 10.746094-24 24-24h160c13.253906 0 24 10.746094 24 24zm0-72c0 13.253906-10.746094 24-24 24h-160c-13.253906 0-24-10.746094-24-24v-8c0-13.253906 10.746094-24 24-24h160c13.253906 0 24 10.746094 24 24zm0 0"/><path d="m48 112h160c4.417969 0 8 3.582031 8 8v8c0 4.417969-3.582031 8-8 8h-160c-4.417969 0-8-3.582031-8-8v-8c0-4.417969 3.582031-8 8-8zm0 0"/><path d="m16 440v16h24v-16zm0 0"/><path d="m216 440v16h24v-16zm0 0"/></svg>