<svg id="Capa_1" enable-background="new 0 0 512 512" height="512" viewBox="0 0 512 512" width="512" xmlns="http://www.w3.org/2000/svg"><g><path d="m0 0v512h512v-512zm482 30v90h-452v-90zm-452 452v-332h452v332z"/><path d="m90 60h212v30h-212z"/><path d="m332 60h30v30h-30z"/><path d="m392 60h30v30h-30z"/><path d="m340.787 301-30 30h-108.574l-30-30h-73.426l-38.787 38.787v51.213h45v30h-45v30h112.213l30-30h108.574l30 30h72.426l38.787-38.787v-51.213h-45v-30h45v-30c-10.747 0-97.474 0-111.213 0zm81.213 90v8.787l-21.213 21.213h-47.574l-30-30h-133.426l-30 30h-24.787v-60h-45v-8.787l21.213-21.213h48.574l30 30h133.426l30-30h23.787v60z"/><path d="m313.459 211h-102.459v-30h-151v90h151v-30h102.459l61.796 30.898 76.745-19.186v-53.423l-76.745-19.186zm-132.459 30h-91v-30h91zm241-18.288v6.577l-43.255 10.814-28.204-14.103 28.204-14.102z"/></g></svg>