<?xml version="1.0" encoding="iso-8859-1"?>
<!-- Generator: Adobe Illustrator 19.0.0, SVG Export Plug-In . SVG Version: 6.00 Build 0)  -->
<svg version="1.1" id="Capa_1" xmlns="http://www.w3.org/2000/svg" xmlns:xlink="http://www.w3.org/1999/xlink" x="0px" y="0px"
	 viewBox="0 0 512 512" style="enable-background:new 0 0 512 512;" xml:space="preserve">
<g>
	<g>
		<path d="M467,0H45C20.187,0,0,20.187,0,45v422c0,24.813,20.187,45,45,45h422c24.813,0,45-20.187,45-45V45
			C512,20.187,491.813,0,467,0z M482,467c0,8.271-6.729,15-15,15H45c-8.271,0-15-6.729-15-15V45c0-8.271,6.729-15,15-15h422
			c8.271,0,15,6.729,15,15V467z"/>
	</g>
</g>
<g>
	<g>
		<path d="M452.19,324.481c-16.968-34.323-90.858-37.687-129.188-36.819c-22.633-23.319-49.222-52.956-69.035-81.813
			c21.347-63.691,26.442-106.231,15.137-126.525c-14.215-25.515-33.842-28.406-47.471-22.611
			c-23.789,10.12-39.752,51.425-22.479,108.039c4.339,14.222,12.028,29.526,21.711,45.051
			c-12.178,34.275-27.665,70.329-43.968,102.846c-38.877,13.341-83.021,35.61-106.208,71.582
			c-9.124,14.153-10.341,31.712-3.256,46.973c11.607,24.996,37.084,31.736,67.582,0.999c10.971-11.058,22.985-26.877,35.71-47.019
			c8.99-14.23,18.193-30.441,27.232-47.833c35.377-10.847,75.584-17.348,112.838-19.235c20.536,20.65,36.156,34.633,38.288,36.529
			c16.503,15.03,43.259,30.38,66.298,27.672c13.209-1.554,24.416-8.607,32.41-20.398
			C459.317,344.917,455.495,331.165,452.19,324.481z M146.338,367.607c-31.798,50.769-47.042,54.781-49.049,55.083
			c-0.403-0.367-1.412-1.465-2.646-4.122c-2.686-5.784-2.203-12.713,1.26-18.084c11.226-17.413,31.4-33.252,58.597-46.366
			C151.768,358.785,149.042,363.29,146.338,367.607z M233.377,84.319c0.117-0.05,0.252-0.075,0.404-0.075
			c1.685,0,5.434,3.074,9.115,9.681c3.454,6.2,4.338,28.908-9.392,76.774c-2.304-5.048-4.211-9.96-5.657-14.701
			C214.695,112.889,226.475,87.255,233.377,84.319z M215.58,301.498c9.363-20.121,18.236-40.994,26.145-61.608
			c13.298,17.579,28.048,34.732,42.253,50.198C260.832,292.404,237.545,296.263,215.58,301.498z M422.959,345.083
			c-3.997,5.896-8.006,7.07-11.052,7.435c-14.815,1.779-36.315-14.326-42.659-20.085c-0.054-0.049-0.107-0.098-0.162-0.146
			c-0.262-0.232-6.117-5.461-15.333-14.211c0.326,0.018,0.652,0.036,0.977,0.054c45.938,2.608,67.37,13.178,70.568,19.646
			C426.209,339.62,424.529,342.767,422.959,345.083z"/>
	</g>
</g>
<g>
</g>
<g>
</g>
<g>
</g>
<g>
</g>
<g>
</g>
<g>
</g>
<g>
</g>
<g>
</g>
<g>
</g>
<g>
</g>
<g>
</g>
<g>
</g>
<g>
</g>
<g>
</g>
<g>
</g>
</svg>
