<svg height="512pt" viewBox="0 -31 512 512" width="512pt" xmlns="http://www.w3.org/2000/svg"><path d="m121 420h120v30h-120zm0 0"/><path d="m271 420h241v30h-241zm0 0"/><path d="m346 240c8.277344 0 15-6.722656 15-15s-6.722656-15-15-15-15 6.722656-15 15 6.722656 15 15 15zm0 0"/><path d="m355.3125 180.992188c12.253906-8.007813 26.148438-11.988282 40.4375-11.6875-11.488281-10.273438-26.070312-16.902344-42.230469-18.542969-1.746093 3.453125-10.789062 12.085937-10.683593 29.558593 1.066406-.074218 2.082031-.320312 3.164062-.320312 3.195312 0 6.304688.359375 9.3125.992188zm0 0"/><path d="m274.398438 246.109375c4.410156-.167969 15.433593 3.109375 29.886718-4.425781-1.402344-3.492188-2.234375-7.234375-2.71875-11.09375-11.21875-4.160156-21.238281-10.871094-29.128906-19.808594-.890625 4.613281-1.4375 9.351562-1.4375 14.21875 0 7.378906 1.402344 14.367188 3.398438 21.109375zm0 0"/><path d="m61 120h125.726562l30.003907-60h-125.730469v-60h-91v30h61zm0 0"/><path d="m369.796875 263.035156c-1.160156 13.078125-5.625 25.40625-13.257813 35.898438 13.738282-1.957032 26.160157-7.597656 36.457032-15.964844-1.597656-7.695312.179687-19.101562-10.082032-32.351562-3.476562 4.992187-7.960937 9.179687-13.117187 12.417968zm0 0"/><path d="m205.273438 150h-144.273438v300h30v-60h421v-330h-261.722656zm-84.273438 90h30v30h-30zm90 90h-90v-30h90zm0-60h-30v-30h30zm0-60h-90v-30h90zm135-90c57.890625 0 105 47.109375 105 105s-47.109375 105-105 105-105-47.109375-105-105 47.109375-105 105-105zm0 0"/><path d="m318.273438 294.542969c3.003906-2.914063 14.695312-8.015625 20.117187-25.3125-4.855469-.835938-9.375-2.511719-13.570313-4.773438-9.980468 6.644531-21.488281 10.492188-33.433593 11.601563 7.46875 7.988281 16.570312 14.355468 26.886719 18.484375zm0 0"/><path d="m308.074219 201.003906c1.785156-2.8125 3.785156-5.476562 6.136719-7.820312-2.3125-12.496094-1.601563-25.332032 2.605468-37.269532-11.796875 5-21.816406 13.144532-29.621094 23.097657 2.121094 3.023437 5.105469 14.292969 20.878907 21.992187zm0 0"/><path d="m390.214844 217.234375c11.792968 8.089844 21.082031 19.078125 26.351562 32.199219 2.679688-7.703125 4.433594-15.835938 4.433594-24.433594 0-6.925781-1.25-13.507812-3.015625-19.882812-4.039063-1.113282-15.632813-9.632813-34.351563-4.648438 3.265626 4.992188 5.511719 10.667969 6.582032 16.765625zm0 0"/></svg>